# File produced by Open Asset Import Library (http://www.assimp.sf.net)
# (assimp v4.0.190497352)

mtllib r_talus.mtl

# 28 vertex positions
v  0.006589709781110287 0.01590383052825928 -0.008473575115203857
v  0.01062200963497162 0.01590383052825928 -0.0001004338264465332
v  0.01062200963497162 -0.01674699038267136 -0.0001004338264465332
v  0.006589709781110287 -0.01674699038267136 -0.008473575115203857
v  -0.002470889827236533 0.01590383052825928 -0.01054167747497559
v  -0.002470889827236533 -0.01674699038267136 -0.01054167747497559
v  -0.009736989624798298 0.01590383052825928 -0.004747331142425537
v  -0.009736989624798298 -0.01674699038267136 -0.004747331142425537
v  -0.009736989624798298 0.01590383052825928 0.004546463489532471
v  -0.009736989624798298 -0.01674699038267136 0.004546463489532471
v  -0.002470889827236533 0.01590383052825928 0.01034086942672729
v  -0.002470889827236533 -0.01674699038267136 0.01034086942672729
v  0.006589709781110287 0.01590383052825928 0.008272886276245117
v  0.006589709781110287 -0.01674699038267136 0.008272886276245117
v  -0.01641318947076797 0.006858088076114655 -0.009228885173797607
v  -0.01641318947076797 0.01125430315732956 -0.0001004338264465332
v  0.01623770967125893 0.01125430315732956 -0.0001004338264465332
v  0.01623770967125893 0.006858088076114655 -0.009228885173797607
v  -0.01641318947076797 -0.003019705414772034 -0.01148355007171631
v  0.01623770967125893 -0.003019705414772034 -0.01148355007171631
v  -0.01641318947076797 -0.01094110310077667 -0.005166232585906982
v  0.01623770967125893 -0.01094110310077667 -0.005166232585906982
v  -0.01641318947076797 -0.01094110310077667 0.004965543746948242
v  0.01623770967125893 -0.01094110310077667 0.004965543746948242
v  -0.01641318947076797 -0.003019712865352631 0.01128268241882324
v  0.01623770967125893 -0.003019712865352631 0.01128268241882324
v  -0.01641318947076797 0.006858088076114655 0.009028077125549316
v  0.01623770967125893 0.006858088076114655 0.009028077125549316

# 60 UV coordinates
vt 0.4662179946899414 0.2828780114650726 0
vt 0.4616389870643616 0.2829430103302002 0
vt 0.4618659913539886 0.2990339994430542 0
vt 0.4664460122585297 0.2989700138568878 0
vt 0.4387350082397461 0.283270001411438 0
vt 0.4341549873352051 0.2833350002765656 0
vt 0.4343839883804321 0.2994259893894196 0
vt 0.438962996006012 0.299360990524292 0
vt 0.4433149993419647 0.2832050025463104 0
vt 0.4435440003871918 0.2992970049381256 0
vt 0.4478949904441833 0.2831389904022217 0
vt 0.4481239914894104 0.2992300093173981 0
vt 0.4524759948253632 0.2830739915370941 0
vt 0.4527060091495514 0.2991650104522705 0
vt 0.457056999206543 0.2830089926719666 0
vt 0.45728600025177 0.2991000115871429 0
vt 0.5576130151748657 0.815867006778717 0
vt 0.5556280016899109 0.8117380142211914 0
vt 0.5511630177497864 0.8107159733772278 0
vt 0.5475800037384033 0.8135690093040466 0
vt 0.5475770235061646 0.8181489706039429 0
vt 0.5511549711227417 0.8210089802742004 0
vt 0.5556229948997498 0.8199920058250427 0
vt 0.6602349877357483 0.752269983291626 0
vt 0.6647369861602783 0.7531160116195679 0
vt 0.6682059764862061 0.7501239776611328 0
vt 0.6680290102958679 0.7455459833145142 0
vt 0.6643400192260742 0.7428299784660339 0
vt 0.6599169969558716 0.744022011756897 0
vt 0.6580899953842163 0.7482219934463501 0
vt 0.5087199807167053 0.282929003238678 0
vt 0.5037279725074768 0.283033013343811 0
vt 0.5040689706802368 0.2991229891777039 0
vt 0.5090609788894653 0.299017995595932 0
vt 0.4787639975547791 0.2835609912872314 0
vt 0.4737710058689117 0.2836650013923645 0
vt 0.4741100072860718 0.2997539937496185 0
vt 0.4791019856929779 0.2996500134468079 0
vt 0.4837569892406464 0.2834570109844208 0
vt 0.4840950071811676 0.2995449900627136 0
vt 0.4887489974498749 0.2833510041236877 0
vt 0.4890879988670349 0.299439013004303 0
vt 0.4937419891357422 0.2832460105419159 0
vt 0.4940820038318634 0.2993339896202087 0
vt 0.4987339973449707 0.2831400036811829 0
vt 0.4990760087966919 0.2992280125617981 0
vt 0.6527190208435059 0.6705960035324097 0
vt 0.6505550146102905 0.6660950183868408 0
vt 0.6456869840621948 0.6649789810180664 0
vt 0.6417800188064575 0.668088972568512 0
vt 0.641776978969574 0.6730830073356628 0
vt 0.6456779837608337 0.6761990189552307 0
vt 0.6505470275878906 0.6750929951667786 0
vt 0.6045939922332764 0.6554520130157471 0
vt 0.6094620227813721 0.6565700173377991 0
vt 0.6133700013160706 0.6534600257873535 0
vt 0.6133769750595093 0.6484670042991638 0
vt 0.6094769835472107 0.6453490257263184 0
vt 0.6046069860458374 0.6464539766311646 0
vt 0.602433979511261 0.650950014591217 0

# 28 vertex normals
vn 0.004885769914835691 0.006212479900568724 -0.00612653000280261
vn 0.007836139760911465 0.006212479900568724 -3.999999975690116e-08
vn 0.007836139760911465 -0.006212479900568724 -3.999999975690116e-08
vn 0.004885769914835691 -0.006212479900568724 -0.00612653000280261
vn -0.001743600005283952 0.006212479900568724 -0.007639689836651087
vn -0.001743600005283952 -0.006212479900568724 -0.007639689836651087
vn -0.007060099858790636 0.006212459877133369 -0.003400050103664398
vn -0.007060099858790636 -0.006212459877133369 -0.003400050103664398
vn -0.00706010963767767 0.006212459877133369 0.003400019835680723
vn -0.00706010963767767 -0.006212459877133369 0.003400019835680723
vn -0.001743689994327724 0.006212490145117044 0.007639669813215733
vn -0.001743689994327724 -0.006212490145117044 0.007639669813215733
vn 0.004885759670287371 0.006212459877133369 0.006126549560576677
vn 0.004885759670287371 -0.006212459877133369 0.006126549560576677
vn -0.006212499458342791 0.004885739646852016 -0.00612653000280261
vn -0.006212450098246336 0.007836160250008106 -9.99999993922529e-09
vn 0.006212450098246336 0.007836160250008106 -9.99999993922529e-09
vn 0.006212499458342791 0.004885739646852016 -0.00612653000280261
vn -0.006212450098246336 -0.001743729924783111 -0.007639700081199408
vn 0.006212450098246336 -0.001743729924783111 -0.007639689836651087
vn -0.006212490145117044 -0.007060149684548378 -0.003399899927899241
vn 0.006212490145117044 -0.007060149684548378 -0.003399899927899241
vn -0.006212479900568724 -0.007060130126774311 0.003399959998205304
vn 0.006212479900568724 -0.007060130126774311 0.003399959998205304
vn -0.006212459877133369 -0.001743689994327724 0.007639689836651087
vn 0.006212469656020403 -0.001743689994327724 0.007639689836651087
vn -0.006212490145117044 0.004885729867964983 0.006126549560576677
vn 0.006212490145117044 0.004885729867964983 0.006126549560576677

# Mesh 'r_talus_r_talusMesh' with 48 faces
g r_talus_r_talusMesh
usemtl drc_extremities_diffuse
f  1/1/1 2/2/2 3/3/3
f  3/3/3 4/4/4 1/1/1
f  5/5/5 1/6/1 4/7/4
f  4/7/4 6/8/6 5/5/5
f  7/9/7 5/5/5 6/8/6
f  6/8/6 8/10/8 7/9/7
f  9/11/9 7/9/7 8/10/8
f  8/10/8 10/12/10 9/11/9
f  11/13/11 9/11/9 10/12/10
f  10/12/10 12/14/12 11/13/11
f  13/15/13 11/13/11 12/14/12
f  12/14/12 14/16/14 13/15/13
f  2/2/2 13/15/13 14/16/14
f  14/16/14 3/3/3 2/2/2
f  2/17/2 1/18/1 5/19/5
f  5/19/5 7/20/7 2/17/2
f  9/21/9 11/22/11 2/17/2
f  2/17/2 7/20/7 9/21/9
f  11/22/11 13/23/13 2/17/2
f  14/24/14 12/25/12 10/26/10
f  10/26/10 8/27/8 14/24/14
f  6/28/6 4/29/4 14/24/14
f  14/24/14 8/27/8 6/28/6
f  4/29/4 3/30/3 14/24/14
f  15/31/15 16/32/16 17/33/17
f  17/33/17 18/34/18 15/31/15
f  19/35/19 15/36/15 18/37/18
f  18/37/18 20/38/20 19/35/19
f  21/39/21 19/35/19 20/38/20
f  20/38/20 22/40/22 21/39/21
f  23/41/23 21/39/21 22/40/22
f  22/40/22 24/42/24 23/41/23
f  25/43/25 23/41/23 24/42/24
f  24/42/24 26/44/26 25/43/25
f  27/45/27 25/43/25 26/44/26
f  26/44/26 28/46/28 27/45/27
f  16/32/16 27/45/27 28/46/28
f  28/46/28 17/33/17 16/32/16
f  16/47/16 15/48/15 19/49/19
f  19/49/19 21/50/21 16/47/16
f  23/51/23 25/52/25 16/47/16
f  16/47/16 21/50/21 23/51/23
f  25/52/25 27/53/27 16/47/16
f  28/54/28 26/55/26 24/56/24
f  24/56/24 22/57/22 28/54/28
f  20/58/20 18/59/18 28/54/28
f  28/54/28 22/57/22 20/58/20
f  18/59/18 17/60/17 28/54/28

